<svg width="18" height="16" viewBox="0 0 18 16" fill="none" xmlns="http://www.w3.org/2000/svg">
<path d="M9 16.004L8.242 15.319C6.61 13.8283 5.26 12.5523 4.192 11.491C3.12467 10.429 2.282 9.49233 1.664 8.681C1.046 7.86967 0.614003 7.13633 0.368003 6.481C0.122003 5.82567 -0.000663964 5.16533 2.7027e-06 4.5C2.7027e-06 3.228 0.432003 2.16 1.296 1.296C2.16 0.432 3.228 0 4.5 0C5.38 0 6.205 0.225 6.975 0.675C7.745 1.125 8.42 1.77967 9 2.639C9.58 1.77967 10.255 1.125 11.025 0.675C11.795 0.225 12.62 0 13.5 0C14.772 0 15.84 0.432 16.704 1.296C17.568 2.16 18 3.228 18 4.5C18 5.164 17.8773 5.824 17.632 6.48C17.386 7.13733 16.954 7.87133 16.336 8.682C15.718 9.49267 14.8783 10.429 13.817 11.491C12.7557 12.5523 11.4023 13.8283 9.757 15.319L9 16.004ZM9 14.65C10.6 13.2033 11.9167 11.9647 12.95 10.934C13.9833 9.90333 14.8 9.00833 15.4 8.249C16 7.48967 16.4167 6.818 16.65 6.234C16.8833 5.64867 17 5.07067 17 4.5C17 3.5 16.6667 2.66667 16 2C15.3333 1.33333 14.5 1 13.5 1C12.704 1 11.9693 1.22733 11.296 1.682C10.6227 2.13667 10.0207 2.821 9.49 3.735H8.512C7.96734 2.80833 7.36167 2.12067 6.695 1.672C6.02834 1.224 5.297 1 4.501 1C3.51434 1 2.68434 1.33333 2.011 2C1.33767 2.66667 1.00067 3.5 1 4.5C1 5.07067 1.11667 5.64867 1.35 6.234C1.58334 6.81933 2 7.491 2.6 8.249C3.2 9.007 4.01667 9.89867 5.05 10.924C6.08334 11.9493 7.4 13.1913 9 14.65Z" fill="#05062F"/>
</svg>
